<svg width="37" height="37" viewBox="0 0 37 37" fill="none" xmlns="http://www.w3.org/2000/svg">
  <path
    d="M20.4561 0.666992C21.3163 0.666992 21.7465 0.667268 22.0322 0.925781C22.3179 1.18432 22.3608 1.61205 22.4463 2.46777L22.6455 4.45605C22.8087 6.0895 22.8897 6.90665 23.4424 7.13574C23.9951 7.36477 24.6308 6.84501 25.9014 5.80566L27.4492 4.53906C28.1146 3.99478 28.4474 3.72307 28.832 3.74219C29.2167 3.76139 29.521 4.06494 30.1289 4.67285L32.6602 7.2041C33.2685 7.8124 33.5726 8.11709 33.5918 8.50195C33.6109 8.88668 33.3385 9.21926 32.7939 9.88477L31.5293 11.4316C30.4898 12.7019 29.9695 13.3369 30.1982 13.8896C30.4272 14.4425 31.2445 14.5239 32.8779 14.6875L34.8662 14.8867C35.722 14.9724 36.1497 15.0161 36.4082 15.3018C36.6666 15.5874 36.667 16.0171 36.667 16.877V20.457C36.667 21.3169 36.6666 21.7466 36.4082 22.0322C36.1497 22.3179 35.722 22.3607 34.8662 22.4463L32.8779 22.6455C31.2444 22.8089 30.4272 22.8905 30.1982 23.4434C29.9693 23.9962 30.4896 24.6318 31.5293 25.9023L32.7939 27.4482C33.3386 28.1138 33.6108 28.4463 33.5918 28.8311C33.5726 29.2159 33.2693 29.5206 32.6611 30.1289L30.1299 32.6602C29.5216 33.2686 29.2169 33.5726 28.832 33.5918C28.4472 33.6109 28.114 33.3387 27.4482 32.7939L25.9023 31.5283C24.6318 30.4886 23.9962 29.9684 23.4434 30.1973C22.8905 30.4262 22.8089 31.2434 22.6455 32.877L22.4463 34.8662C22.3607 35.722 22.3179 36.1497 22.0322 36.4082C21.7466 36.6666 21.3169 36.667 20.457 36.667H16.877C16.0171 36.667 15.5874 36.6666 15.3018 36.4082C15.0161 36.1497 14.9724 35.722 14.8867 34.8662L14.6875 32.8779C14.5239 31.2445 14.4425 30.4272 13.8896 30.1982C13.3369 29.9695 12.7019 30.4898 11.4316 31.5293L9.88477 32.7939C9.21926 33.3385 8.88668 33.6109 8.50195 33.5918C8.11709 33.5726 7.8124 33.2685 7.2041 32.6602L4.67285 30.1289C4.06493 29.521 3.76139 29.2167 3.74219 28.832C3.72307 28.4474 3.99479 28.1146 4.53906 27.4492L5.80469 25.9023C6.844 24.6318 7.36375 23.9961 7.13477 23.4434C6.90577 22.8907 6.08916 22.8089 4.45605 22.6455L2.46777 22.4463C1.612 22.3607 1.1843 22.3179 0.925781 22.0322C0.667368 21.7466 0.666992 21.3169 0.666992 20.457V16.877C0.666992 16.0171 0.667399 15.5874 0.925781 15.3018C1.18428 15.0161 1.61197 14.9724 2.46777 14.8867L4.45703 14.6875C6.09018 14.524 6.90683 14.4424 7.13574 13.8896C7.36457 13.3369 6.84489 12.7018 5.80566 11.4316L4.54004 9.88379C3.99547 9.21821 3.72309 8.88571 3.74219 8.50098C3.76138 8.11614 4.06557 7.81138 4.67383 7.20312L7.2041 4.67285C7.81235 4.06461 8.11712 3.76041 8.50195 3.74121C8.88669 3.72211 9.21917 3.9945 9.88477 4.53906L11.4316 5.80371C12.7019 6.84295 13.3369 7.36262 13.8896 7.13379C14.4424 6.90487 14.5239 6.08827 14.6875 4.45508L14.8867 2.46777C14.9724 1.61199 15.0161 1.18427 15.3018 0.925781C15.5874 0.667406 16.0171 0.666992 16.877 0.666992H20.4561ZM18.667 11.4668C14.6905 11.4668 11.4668 14.6905 11.4668 18.667C11.4668 22.6435 14.6905 25.8672 18.667 25.8672C22.6435 25.8672 25.8672 22.6435 25.8672 18.667C25.8672 14.6905 22.6435 11.4668 18.667 11.4668Z"
    fill="currentColor"
  />
</svg>
