<svg width="30" height="29" viewBox="0 0 30 29" fill="currentColor" xmlns="http://www.w3.org/2000/svg">
<path d="M15.4751 8.14496C17.1209 10.744 19.3463 12.9415 21.9868 14.5541L9.84033 26.5981C9.41572 27.0191 9.20311 27.2293 8.94287 27.3676C8.68255 27.506 8.38914 27.5647 7.80225 27.6811L1.61182 28.9086C1.27909 28.9746 1.11252 29.0073 1.01807 28.9125C0.923634 28.8178 0.956862 28.6513 1.02393 28.3188L2.25732 22.2065C2.37667 21.6148 2.43654 21.3189 2.57764 21.0571C2.71877 20.7953 2.93308 20.5828 3.36182 20.1577L15.4751 8.14496ZM23.5806 0.926208C24.404 0.926208 25.0684 1.58447 26.397 2.90179L27.2036 3.70062C28.553 5.03859 29.227 5.70806 29.2271 6.54144C29.2271 7.37485 28.553 8.04427 27.2036 9.38226L23.4546 13.0991C20.7614 11.5536 18.5195 9.34499 16.9331 6.69965L20.7642 2.90179C22.0927 1.58451 22.7572 0.926308 23.5806 0.926208Z" fill="currentColor"/>
</svg>
